<svg data-v-423bf9ae="" xmlns="http://www.w3.org/2000/svg" viewBox="0 0 398 103" class="iconLeftSlogan"><!----><!----><!----><g data-v-423bf9ae="" id="712171fd-97c4-4b94-81fa-5d385fe2fb88" fill="#ffffff" transform="matrix(4.140786647796631,0,0,4.140786647796631,119.21162414550781,-15.2380952835083)"><path d="M4.77 15.50C6.33 15.50 7.62 14.43 7.62 12.24L7.62 10.05C7.62 7.84 6.65 6.66 4.94 6.66C4.00 6.66 3.40 6.90 2.91 7.39L2.81 6.83L0.77 6.83L0.77 18.03L3.14 18.03L3.14 15.11C3.53 15.36 4.05 15.50 4.77 15.50ZM3.14 9.93C3.14 9.06 3.49 8.74 4.19 8.74C4.93 8.74 5.25 9.09 5.25 10.01L5.25 12.15C5.25 13.09 4.87 13.43 4.19 13.43C3.54 13.43 3.14 13.12 3.14 12.22ZM11.35 4.52L8.99 4.52L8.99 15.33L11.35 15.33L11.35 9.95C11.35 9.09 11.72 8.74 12.38 8.74C13.10 8.74 13.37 9.10 13.37 10.00L13.37 15.33L15.74 15.33L15.74 9.73C15.74 7.63 14.91 6.66 13.17 6.66C12.36 6.66 11.80 6.85 11.35 7.20ZM19.60 6.83L17.23 6.83L17.23 15.33L19.60 15.33ZM19.60 3.68L17.23 3.68L17.23 5.84L19.60 5.84ZM24.56 13.33C23.83 13.37 23.49 13.15 23.49 12.14L23.49 4.52L21.14 4.52L21.14 12.04C21.14 14.62 21.85 15.71 24.56 15.44ZM28.80 13.36C28.08 13.36 27.83 13.06 27.83 12.14L27.83 9.38L29.36 9.38L29.36 7.32L27.83 7.32L27.83 5.39L25.41 5.39L25.41 12.05C25.41 14.38 26.08 15.50 28.21 15.50C28.69 15.50 29.16 15.44 29.34 15.40L29.34 13.30C29.20 13.34 28.99 13.36 28.80 13.36ZM35.14 12.66C35.08 13.24 34.83 13.58 33.99 13.58C33.24 13.58 32.90 13.16 32.90 12.28L32.90 11.79L37.38 11.79L37.38 9.95C37.38 7.69 36.26 6.66 34.01 6.66C31.70 6.66 30.58 7.92 30.58 9.94L30.58 12.08C30.58 14.46 31.68 15.50 34.01 15.50C36.26 15.50 37.24 14.49 37.31 12.66ZM32.90 9.86C32.90 8.88 33.24 8.50 34.03 8.50C34.79 8.50 35.15 8.89 35.15 9.80L35.15 10.09L32.90 10.09ZM42.11 13.33C41.38 13.37 41.05 13.15 41.05 12.14L41.05 4.52L38.70 4.52L38.70 12.04C38.70 14.62 39.41 15.71 42.11 15.44ZM45.63 12.94L43.32 12.94L43.32 15.33L45.63 15.33ZM49.15 10.02C49.15 9.03 49.45 8.74 50.20 8.74C50.97 8.74 51.27 9.03 51.27 10.02L51.27 12.15C51.27 13.13 50.97 13.43 50.20 13.43C49.45 13.43 49.15 13.13 49.15 12.15ZM50.20 6.66C47.88 6.66 46.79 7.77 46.79 10.05L46.79 12.11C46.79 14.41 47.88 15.50 50.20 15.50C52.54 15.50 53.63 14.41 53.63 12.11L53.63 10.05C53.63 7.77 52.54 6.66 50.20 6.66ZM55.02 6.83L55.02 15.33L57.39 15.33L57.39 10.86C57.39 9.52 58.13 9.11 58.94 9.11C59.16 9.11 59.37 9.14 59.57 9.17L59.57 6.73C59.44 6.72 59.32 6.71 59.18 6.71C58.28 6.71 57.62 7.04 57.20 7.57L57.06 6.83ZM63.87 16.31C63.11 16.31 62.89 16.00 62.82 15.41L60.56 15.41C60.58 17.08 61.38 18.17 63.80 18.17C65.97 18.17 67.23 17.25 67.23 14.84L67.23 6.83L65.16 6.83L65.06 7.39C64.64 6.92 63.92 6.66 63.07 6.66C61.68 6.66 60.40 7.73 60.40 9.93L60.40 11.52C60.40 13.75 61.43 14.91 63.13 14.91C63.76 14.91 64.40 14.74 64.89 14.38L64.89 14.94C64.89 16.00 64.53 16.31 63.87 16.31ZM62.76 10.02C62.76 9.09 63.14 8.74 63.83 8.74C64.46 8.74 64.88 9.06 64.88 9.95L64.88 11.65C64.88 12.52 64.53 12.84 63.81 12.84C63.07 12.84 62.76 12.49 62.76 11.56Z"></path></g><!----><g data-v-423bf9ae="" id="0592baff-2259-44d2-9560-e8945167f377" transform="matrix(1.0668447017669678,0,0,1.0668447017669678,0.7997168898582458,0.7831754684448242)" stroke="none" fill="#FFFFFF"><path d="M48.004-.004c-26.468 0-48 21.532-48 48a48.045 48.045 0 0 0 16.352 36.096c.832.724 2.092.64 2.824-.184a2 2 0 0 0-.184-2.824A44.042 44.042 0 0 1 4 47.996c0-24.256 19.74-44 44-44 24.256 0 44 19.744 44 44 0 24.26-19.744 44-44 44-5.956 0-9.748-1.084-10.952-3.144-1.532-2.608.86-7.264 2.752-10.684l1.084.48a8.468 8.468 0 0 0 3.444.732 8.548 8.548 0 0 0 7.812-5.084l1.756-3.988c1.904-4.3-.056-9.348-4.356-11.256l-5.976-2.64c-.632-.276-1.252-1.652-1.228-4.096.032-2.828.92-6.416 2.436-9.848 3.396-7.684 7.944-10.948 9.5-10.276l5.976 2.636c4.212 1.852 9.412-.18 11.252-4.356l1.76-3.988a8.484 8.484 0 0 0 .148-6.532 8.456 8.456 0 0 0-4.508-4.724l-5.968-2.644a9.653 9.653 0 0 0-3.912-.8c-8.588 0-19.236 10.504-25.884 25.544-7.856 17.784-7.084 34.78 1.76 38.692l1.224.54c-2.412 4.364-5.12 9.916-2.536 14.332 2.02 3.444 6.732 5.12 14.404 5.12 26.468 0 48-21.536 48-48C96.004 21.528 74.472-.004 48.004-.004z"></path></g><!----><g data-v-423bf9ae="" id="1c2ff844-d9d2-47ba-a780-fa43c215db62" fill="#ffffff" transform="matrix(1.0752496719360352,0,0,1.0752496719360352,122.24949645996094,55.1721305847168)"><path d="M6.55 15.33L9.25 15.33L6.15 4.66L3.26 4.66L0.14 15.33L2.74 15.33L3.32 12.84L5.98 12.84ZM4.65 7.08L5.49 10.71L3.81 10.71ZM13.73 15.33L16.14 15.33L16.14 11.61L17.29 11.61C19.85 11.61 20.97 10.47 20.97 8.23L20.97 7.98C20.97 5.73 19.80 4.66 17.22 4.66L13.73 4.66ZM16.14 6.82L17.23 6.82C18.20 6.82 18.56 7.10 18.56 8.06L18.56 8.19C18.56 9.13 18.27 9.45 17.28 9.45L16.14 9.45ZM29.96 4.66L27.55 4.66L27.55 8.79L24.60 8.79L24.60 4.66L22.18 4.66L22.18 15.33L24.60 15.33L24.60 10.96L27.55 10.96L27.55 15.33L29.96 15.33ZM36.50 15.33L39.24 15.33L37.45 10.93C38.36 10.43 38.77 9.56 38.77 8.19L38.77 7.98C38.77 5.73 37.60 4.66 35.03 4.66L31.64 4.66L31.64 15.33L34.02 15.33L34.02 11.45L35.18 11.45ZM34.02 6.78L35.06 6.78C36.04 6.78 36.39 7.06 36.39 8.02L36.39 8.11C36.39 9.03 36.11 9.34 35.10 9.34L34.02 9.34ZM42.67 6.83L46.61 6.83L46.61 4.66L40.24 4.66L40.24 15.33L46.75 15.33L46.75 13.16L42.67 13.16L42.67 11.00L46.02 11.00L46.02 8.88L42.67 8.88ZM53.94 15.33L56.64 15.33L53.54 4.66L50.65 4.66L47.53 15.33L50.13 15.33L50.71 12.84L53.37 12.84ZM52.04 7.08L52.88 10.71L51.20 10.71ZM60.05 4.66L57.62 4.66L57.62 15.33L60.05 15.33L60.05 11.00L60.96 11.00L63.13 15.33L66.07 15.33L62.92 9.79L65.66 4.66L62.85 4.66L60.94 8.78L60.05 8.78ZM66.22 4.66L69.41 10.89L69.41 15.33L71.83 15.33L71.83 10.92L75.04 4.66L72.42 4.66L70.69 8.78L68.95 4.66ZM79.45 15.33L81.86 15.33L81.86 11.61L83.01 11.61C85.57 11.61 86.69 10.47 86.69 8.23L86.69 7.98C86.69 5.73 85.51 4.66 82.94 4.66L79.45 4.66ZM81.86 6.82L82.95 6.82C83.92 6.82 84.28 7.10 84.28 8.06L84.28 8.19C84.28 9.13 83.99 9.45 82.99 9.45L81.86 9.45ZM95.68 4.66L93.27 4.66L93.27 8.79L90.31 8.79L90.31 4.66L87.89 4.66L87.89 15.33L90.31 15.33L90.31 10.96L93.27 10.96L93.27 15.33L95.68 15.33ZM99.82 8.22C99.82 7.17 100.27 6.68 101.19 6.68C102.12 6.68 102.56 7.17 102.56 8.22L102.56 11.77C102.56 12.84 102.12 13.31 101.19 13.31C100.27 13.31 99.82 12.84 99.82 11.77ZM101.19 4.49C98.56 4.49 97.27 5.84 97.27 8.34L97.27 11.66C97.27 14.15 98.56 15.50 101.19 15.50C103.84 15.50 105.11 14.15 105.11 11.66L105.11 8.34C105.11 5.84 103.84 4.49 101.19 4.49ZM106.71 4.66L106.71 15.33L109.05 15.33L109.05 9.17L112.01 15.33L114.45 15.33L114.45 4.66L112.13 4.66L112.13 11.05L109.17 4.66ZM118.57 6.83L122.50 6.83L122.50 4.66L116.13 4.66L116.13 15.33L122.64 15.33L122.64 13.16L118.57 13.16L118.57 11.00L121.91 11.00L121.91 8.88L118.57 8.88ZM132.66 11.49L132.66 11.83C132.64 12.82 132.22 13.23 131.40 13.23C130.44 13.23 130.09 12.73 130.09 11.55L130.09 8.48C130.09 7.28 130.45 6.76 131.40 6.76C132.19 6.76 132.65 7.20 132.65 8.16L132.65 8.39L135.24 8.39L135.24 8.20C135.24 5.80 133.95 4.49 131.40 4.49C128.77 4.49 127.54 5.87 127.54 8.36L127.54 11.65C127.54 14.13 128.77 15.50 131.40 15.50C133.98 15.50 135.24 14.18 135.25 11.79L135.25 11.49ZM138.87 8.22C138.87 7.17 139.31 6.68 140.24 6.68C141.16 6.68 141.61 7.17 141.61 8.22L141.61 11.77C141.61 12.84 141.16 13.31 140.24 13.31C139.31 13.31 138.87 12.84 138.87 11.77ZM140.24 4.49C137.61 4.49 136.32 5.84 136.32 8.34L136.32 11.66C136.32 14.15 137.61 15.50 140.24 15.50C142.88 15.50 144.16 14.15 144.16 11.66L144.16 8.34C144.16 5.84 142.88 4.49 140.24 4.49ZM151.93 13.13L148.19 13.13L148.19 4.66L145.75 4.66L145.75 15.33L151.93 15.33ZM159.36 13.13L155.62 13.13L155.62 4.66L153.19 4.66L153.19 15.33L159.36 15.33ZM163.06 6.83L166.99 6.83L166.99 4.66L160.62 4.66L160.62 15.33L167.13 15.33L167.13 13.16L163.06 13.16L163.06 11.00L166.40 11.00L166.40 8.88L163.06 8.88ZM173.66 11.49L173.66 11.83C173.63 12.82 173.21 13.23 172.40 13.23C171.43 13.23 171.08 12.73 171.08 11.55L171.08 8.48C171.08 7.28 171.44 6.76 172.40 6.76C173.18 6.76 173.64 7.20 173.64 8.16L173.64 8.39L176.23 8.39L176.23 8.20C176.23 5.80 174.94 4.49 172.40 4.49C169.76 4.49 168.53 5.87 168.53 8.36L168.53 11.65C168.53 14.13 169.76 15.50 172.40 15.50C174.97 15.50 176.23 14.18 176.25 11.79L176.25 11.49ZM181.85 15.33L181.85 6.83L184.34 6.83L184.34 4.66L176.95 4.66L176.95 6.83L179.42 6.83L179.42 15.33ZM188.10 4.66L185.67 4.66L185.67 15.33L188.10 15.33ZM189.04 4.66L191.72 15.33L194.78 15.33L197.44 4.66L194.82 4.66L193.28 12.56L191.77 4.66ZM200.82 6.83L204.75 6.83L204.75 4.66L198.38 4.66L198.38 15.33L204.89 15.33L204.89 13.16L200.82 13.16L200.82 11.00L204.16 11.00L204.16 8.88L200.82 8.88Z"></path></g></svg>