<svg data-v-fde0c5aa="" xmlns="http://www.w3.org/2000/svg" viewBox="0 0 300 300" class="font"><!----><defs data-v-fde0c5aa=""><!----></defs><rect data-v-fde0c5aa="" fill="#000000" x="0" y="0" width="300px" height="300px" class="logo-background-square"></rect><defs data-v-fde0c5aa=""><!----></defs><g data-v-fde0c5aa="" id="b78d8851-ae17-43e0-8810-fd3f341290a2" fill="#ffffff" transform="matrix(3.3102614879608154,0,0,3.3102614879608154,37.451098725686904,113.83539351933166)"><path d="M4.77 15.50C6.33 15.50 7.62 14.43 7.62 12.24L7.62 10.05C7.62 7.84 6.65 6.66 4.94 6.66C4.00 6.66 3.40 6.90 2.91 7.39L2.81 6.83L0.77 6.83L0.77 18.03L3.14 18.03L3.14 15.11C3.53 15.36 4.05 15.50 4.77 15.50ZM3.14 9.93C3.14 9.06 3.49 8.74 4.19 8.74C4.93 8.74 5.25 9.09 5.25 10.01L5.25 12.15C5.25 13.09 4.87 13.43 4.19 13.43C3.54 13.43 3.14 13.12 3.14 12.22ZM11.35 4.52L8.99 4.52L8.99 15.33L11.35 15.33L11.35 9.95C11.35 9.09 11.72 8.74 12.38 8.74C13.10 8.74 13.37 9.10 13.37 10.00L13.37 15.33L15.74 15.33L15.74 9.73C15.74 7.63 14.91 6.66 13.17 6.66C12.36 6.66 11.80 6.85 11.35 7.20ZM19.60 6.83L17.23 6.83L17.23 15.33L19.60 15.33ZM19.60 3.68L17.23 3.68L17.23 5.84L19.60 5.84ZM24.56 13.33C23.83 13.37 23.49 13.15 23.49 12.14L23.49 4.52L21.14 4.52L21.14 12.04C21.14 14.62 21.85 15.71 24.56 15.44ZM28.80 13.36C28.08 13.36 27.83 13.06 27.83 12.14L27.83 9.38L29.36 9.38L29.36 7.32L27.83 7.32L27.83 5.39L25.41 5.39L25.41 12.05C25.41 14.38 26.08 15.50 28.21 15.50C28.69 15.50 29.16 15.44 29.34 15.40L29.34 13.30C29.20 13.34 28.99 13.36 28.80 13.36ZM35.14 12.66C35.08 13.24 34.83 13.58 33.99 13.58C33.24 13.58 32.90 13.16 32.90 12.28L32.90 11.79L37.38 11.79L37.38 9.95C37.38 7.69 36.26 6.66 34.01 6.66C31.70 6.66 30.58 7.92 30.58 9.94L30.58 12.08C30.58 14.46 31.68 15.50 34.01 15.50C36.26 15.50 37.24 14.49 37.31 12.66ZM32.90 9.86C32.90 8.88 33.24 8.50 34.03 8.50C34.79 8.50 35.15 8.89 35.15 9.80L35.15 10.09L32.90 10.09ZM42.11 13.33C41.38 13.37 41.05 13.15 41.05 12.14L41.05 4.52L38.70 4.52L38.70 12.04C38.70 14.62 39.41 15.71 42.11 15.44ZM45.63 12.94L43.32 12.94L43.32 15.33L45.63 15.33ZM49.15 10.02C49.15 9.03 49.45 8.74 50.20 8.74C50.97 8.74 51.27 9.03 51.27 10.02L51.27 12.15C51.27 13.13 50.97 13.43 50.20 13.43C49.45 13.43 49.15 13.13 49.15 12.15ZM50.20 6.66C47.88 6.66 46.79 7.77 46.79 10.05L46.79 12.11C46.79 14.41 47.88 15.50 50.20 15.50C52.54 15.50 53.63 14.41 53.63 12.11L53.63 10.05C53.63 7.77 52.54 6.66 50.20 6.66ZM55.02 6.83L55.02 15.33L57.39 15.33L57.39 10.86C57.39 9.52 58.13 9.11 58.94 9.11C59.16 9.11 59.37 9.14 59.57 9.17L59.57 6.73C59.44 6.72 59.32 6.71 59.18 6.71C58.28 6.71 57.62 7.04 57.20 7.57L57.06 6.83ZM63.87 16.31C63.11 16.31 62.89 16.00 62.82 15.41L60.56 15.41C60.58 17.08 61.38 18.17 63.80 18.17C65.97 18.17 67.23 17.25 67.23 14.84L67.23 6.83L65.16 6.83L65.06 7.39C64.64 6.92 63.92 6.66 63.07 6.66C61.68 6.66 60.40 7.73 60.40 9.93L60.40 11.52C60.40 13.75 61.43 14.91 63.13 14.91C63.76 14.91 64.40 14.74 64.89 14.38L64.89 14.94C64.89 16.00 64.53 16.31 63.87 16.31ZM62.76 10.02C62.76 9.09 63.14 8.74 63.83 8.74C64.46 8.74 64.88 9.06 64.88 9.95L64.88 11.65C64.88 12.52 64.53 12.84 63.81 12.84C63.07 12.84 62.76 12.49 62.76 11.56Z"></path></g><!----><!----></svg>