<svg id="Layer_1" data-name="Layer 1" xmlns="http://www.w3.org/2000/svg" viewBox="0 0 242.85 152.4"><defs><style>.cls-1,.cls-6{fill:#f7f8f9;}.cls-1{stroke:#231f20;stroke-miterlimit:10;stroke-width:0.5px;}.cls-2{fill:#e8e7e7;}.cls-3,.cls-4{fill:#85c340;}.cls-4{opacity:0.39;}.cls-5{fill:#7ebbde;}.cls-7{fill:#bc2e2e;}.cls-8{fill:#2d7fc9;}.cls-9{fill:#231f20;}.cls-10{font-size:11px;}.cls-10,.cls-11{font-family:CreditCard, Credit Card;}.cls-11{font-size:10px;}.cls-12{font-size:6px;font-family:HelveticaNeue-MediumCond, Helvetica Neue;font-weight:500;}.cls-13{letter-spacing:-0.04em;}.cls-14{letter-spacing:0em;}.cls-15{letter-spacing:-0.04em;}.cls-16{letter-spacing:0em;}.cls-17{letter-spacing:-0.01em;}</style></defs><path class="cls-1" d="M229.9.64H13.1C6.09.64.4,7.22.4,15.33V137.85c0,8.11,5.69,14.69,12.7,14.69H229.9c7,0,12.7-6.58,12.7-14.69V15.33C242.6,7.22,236.91.64,229.9.64Z" transform="translate(-0.15 -0.39)"/><path class="cls-2" d="M242.6,137.85V15.33c0-8.11-5.69-14.69-12.7-14.69H138.13c-20.72,17.8-34,45.21-34,76s13.28,58.15,34,75.95H229.9C236.91,152.54,242.6,146,242.6,137.85Z" transform="translate(-0.15 -0.39)"/><path class="cls-3" d="M146,91.82c-.16-1.14-.34-2.27-.52-3.4A22.88,22.88,0,0,0,146,91.82Z" transform="translate(-0.15 -0.39)"/><path class="cls-4" d="M146,91.82c-.16-1.14-.34-2.27-.52-3.4A22.88,22.88,0,0,0,146,91.82Z" transform="translate(-0.15 -0.39)"/><path class="cls-5" d="M146,91.82c-.16-1.14-.34-2.27-.52-3.4A21.65,21.65,0,0,0,146,91.82Z" transform="translate(-0.15 -0.39)"/><path class="cls-6" d="M180.59,113.58a2.82,2.82,0,0,1,1.25-1.83,2.54,2.54,0,0,1,.95-.12h1.55a3.06,3.06,0,0,1,.8.07,3.25,3.25,0,0,1,1.1.62,11.6,11.6,0,0,0,4.39,2.21c.42.09.85.13,1.27.23a5.67,5.67,0,0,1,3.23,2.17c-.1.21-.35.25-.57.28l-4,.44a.74.74,0,0,1-.26,0c-.21-.1-.21-.42-.15-.65a3.78,3.78,0,0,1,.28-.82,1,1,0,0,0,.16-.49c0-.43-.55-.55-.94-.6a13.56,13.56,0,0,1-3.28-1.08,8,8,0,0,0-2.65-.64,4.74,4.74,0,0,0-2.21.5,1.22,1.22,0,0,1-.72.22c-.25,0-.48-.35-.34-.58" transform="translate(-0.15 -0.39)"/><path class="cls-6" d="M196.54,117.43A3.11,3.11,0,0,1,198,119a5.31,5.31,0,0,1-2.62.57c.3.87,1.31,1.11,2.16,1.22a1,1,0,0,0,.45,0,1.65,1.65,0,0,0,.45-.31,1.68,1.68,0,0,1,1.87-.16.62.62,0,0,0,.4.13c.19,0,.27-.28.38-.46a1.58,1.58,0,0,1,1.71-.47,2.27,2.27,0,0,0,1.83-.11.55.55,0,0,0,.24-.34c.06-.35-.3-.6-.62-.71a8.67,8.67,0,0,0-2.42-.43,3.06,3.06,0,0,1-2.25-.67,1.76,1.76,0,0,0-.38-.39,1,1,0,0,0-.66-.07l-1.95.22a.36.36,0,0,0,0,.52" transform="translate(-0.15 -0.39)"/><path class="cls-6" d="M190,119.33a2.39,2.39,0,0,0,1,.07,2.39,2.39,0,0,1,1,.1.91.91,0,0,1,.59.82.42.42,0,0,1-.11.31.6.6,0,0,1-.31.15.85.85,0,0,1-.85-.09,1.08,1.08,0,0,0-.16-.2c-.16-.11-.37,0-.56,0a.78.78,0,0,1-.63-.43,2.62,2.62,0,0,1-.26-.79l.28,0" transform="translate(-0.15 -0.39)"/><path class="cls-6" d="M188.35,41.87a4.33,4.33,0,0,1,1.8,2.25,2.66,2.66,0,0,1-.71.42.79.79,0,0,1-.45.08c-.31,0-.53-.35-.71-.63-.29.06-.44.4-.57.69a3.57,3.57,0,0,1-.5.78c-.11.13-.26.26-.42.22s-.25-.26-.28-.45a3.49,3.49,0,0,1,.31-2.11.91.91,0,0,1,.22-.32,1.74,1.74,0,0,1,.45-.17,1.4,1.4,0,0,0,.81-.72" transform="translate(-0.15 -0.39)"/><path class="cls-6" d="M192.36,42.67l-.06.87,3.09.07a1.17,1.17,0,0,1,.69.17c.49.39.2,1.31.61,1.79a1.14,1.14,0,0,0,.51.32l3.45,1.5c.17.07.4.13.52,0a.46.46,0,0,0,0-.44,1.8,1.8,0,0,0-.92-.92,2.31,2.31,0,0,1-.62-.28.48.48,0,0,1-.11-.64l2.28.59c.23.06.5.1.64-.1a.48.48,0,0,0,0-.39c-.15-.94-1.14-1.36-1.82-2a3.61,3.61,0,0,1-1.08-3.3,1.56,1.56,0,0,1,1.19.9,5.17,5.17,0,0,0,.37.87c.18.25.56.38.77.15a.9.9,0,0,0,.13-.28l.63-1.93a1,1,0,0,0,.08-.58.89.89,0,0,0-.52-.52,7.06,7.06,0,0,0-2.27-.75,3.52,3.52,0,0,1-1-.23,1,1,0,0,1-.57-.86c0-.38.3-.72.25-1.1-.09-.74-1.22-.67-1.58-1.31-.21-.36-.1-.84-.22-1.24-.22-.74-1-1-1.76-1.1a1.32,1.32,0,0,0-1.38-1.35,5.25,5.25,0,0,0-2,.69.19.19,0,0,1-.15,0c-.08,0-.09-.16-.08-.26l.15-1.83a1.17,1.17,0,0,0-1.7.42,3,3,0,0,0-.22,2.06,1.5,1.5,0,0,1-.7-2.2c.17-.22.41-.53.23-.74a.39.39,0,0,0-.26-.11,1.38,1.38,0,0,0-1.23,1,5.48,5.48,0,0,0,.11,3.32,1.42,1.42,0,0,0,.4.83c.37.28.88.09,1.32.13.68.06,1.24.68,1.92.74a2.05,2.05,0,0,1,.82.08,1.22,1.22,0,0,1,.42.45c.48.74,1,1.59,1.82,1.76a1.35,1.35,0,0,1,.66.21.94.94,0,0,1,.2.35l.37.9a.73.73,0,0,1,.08.46c0,.19-.21.3-.35.43-.68.65-.57,1.81-.4,2.78l-2,.18c-.3,0-.67.11-.75.42" transform="translate(-0.15 -0.39)"/><path class="cls-6" d="M174.71,25.78a1.89,1.89,0,0,1,1.42-.8c.33,0,.67.07,1,.06a1,1,0,0,0,.86-.47,1,1,0,0,0-.07-.88,2.81,2.81,0,0,0-.57-.67L177,22.7a2.42,2.42,0,0,0-.69-.51.79.79,0,0,0-.8,0,2.51,2.51,0,0,0-.49.7,1.52,1.52,0,0,1-.92.64,4.35,4.35,0,0,0-.63.1c-.58.2-.81.93-1,1.55a.58.58,0,0,0,0,.32.49.49,0,0,0,.31.25,3.12,3.12,0,0,0,1.07.27,1,1,0,0,0,.93-.52" transform="translate(-0.15 -0.39)"/><path class="cls-6" d="M175.09,26.2a27.51,27.51,0,0,1,2.78-.69.39.39,0,0,1,.24,0,.4.4,0,0,1,.16.2,1.14,1.14,0,0,1,.07.66.88.88,0,0,0,0,.28.32.32,0,0,0,.36.22.93.93,0,0,0,.39-.21l.4.58a.37.37,0,0,0,.19.16.32.32,0,0,0,.24-.09,4.28,4.28,0,0,1,1.79-.75.47.47,0,0,1,.33,0,.34.34,0,0,1,.14.21,1,1,0,0,1-.47,1,3.61,3.61,0,0,0-.91.68,2.6,2.6,0,0,0-.28.61l-.5,1.46c-.09.27-.17.61,0,.8a.84.84,0,0,0,.49.16,1,1,0,0,1,.66.43.71.71,0,0,1-.06.8c-.35.36-1,0-1.4.31-.23.15-.35.47-.61.55s-.69-.32-.8-.71-.13-.59-.37-.73a.77.77,0,0,0-.34-.08l-2-.14c-.48,0-1.06-.13-1.26-.6s.06-1-.19-1.4c-.11-.18-.33-.36-.26-.57a.41.41,0,0,1,.22-.19,1.24,1.24,0,0,1,.69-.1c.21,0,.46.12.64,0a.46.46,0,0,0,.15-.3,1.23,1.23,0,0,0-.39-1,1.82,1.82,0,0,1-.54-.91c0-.37.32-.78.62-.6" transform="translate(-0.15 -0.39)"/><path class="cls-6" d="M181.76,28.38a2.15,2.15,0,0,0,.54,1.11,1.59,1.59,0,0,1,.25.33c.16.37-.08.9.2,1.16a.42.42,0,0,0,.54,0,1,1,0,0,0,.27-.54c.07-.47,0-1,.24-1.37a2.72,2.72,0,0,1,.29-.3,2,2,0,0,0,.55-1.5.53.53,0,0,0-.12-.33.35.35,0,0,0-.27-.06c-.62.1-.76,1.12-1.35,1.35a1.41,1.41,0,0,1-1-.18.25.25,0,0,0-.17,0c-.15.06,0,.32-.09.5l.15,0" transform="translate(-0.15 -0.39)"/><path class="cls-6" d="M187.36,24.2a1.27,1.27,0,0,1,1,.55,1.46,1.46,0,0,1,.17,1.24c-.06.2-.18.42-.1.62a.61.61,0,0,0,.27.28,4.4,4.4,0,0,0,2.75.67.6.6,0,0,0,.51-1,1.48,1.48,0,0,0-.75-.67c-.5-.19-1.13-.09-1.5-.49a3.08,3.08,0,0,1-.41-.81,1.79,1.79,0,0,0-2.24-.91.65.65,0,0,0,.37.6" transform="translate(-0.15 -0.39)"/><path class="cls-6" d="M185.55,25.72a4.76,4.76,0,0,0,.48-2.38.3.3,0,0,0-.05-.19.2.2,0,0,0-.14-.06,1,1,0,0,0-1,.57.55.55,0,0,1-.23-.44,1,1,0,0,0-.13-.5.49.49,0,0,0-.68,0,1.33,1.33,0,0,0-.35.7,1.54,1.54,0,0,0,0,.64.69.69,0,0,0,.35.49c.24.1.57,0,.7.26a.55.55,0,0,1,.07.25,1.16,1.16,0,0,0,.3.63.63.63,0,0,0,.63.16.33.33,0,0,0,.16-.15.3.3,0,0,0-.11-.33.8.8,0,0,0-.34-.11" transform="translate(-0.15 -0.39)"/><path class="cls-6" d="M182.45,24.72a1.3,1.3,0,0,0,.05-1.47,1,1,0,0,1-.21-.41c0-.24.22-.47.12-.68s-.53-.27-.74-.1a.66.66,0,0,0-.21.51,2.81,2.81,0,0,1,0,.58.24.24,0,0,1-.34-.1.77.77,0,0,1-.1-.4,5.54,5.54,0,0,1,.07-1,2,2,0,0,0-1,0,1.11,1.11,0,0,0-.61.35.63.63,0,0,0-.1.69,1.19,1.19,0,0,0,.43.37.55.55,0,0,1,.3.46c0,.29-.39.52-.27.78a.42.42,0,0,0,.31.18,8.38,8.38,0,0,0,1.23.07,1.89,1.89,0,0,1,1.16.41" transform="translate(-0.15 -0.39)"/><path class="cls-6" d="M178.88,20.93a8.9,8.9,0,0,1,2.67-.08.17.17,0,0,0,.14,0,.13.13,0,0,0,.05-.07.73.73,0,0,0-.3-.81,1.66,1.66,0,0,0-1.34-.21,2.87,2.87,0,0,1-.5.07,4.42,4.42,0,0,1-.5-.1.6.6,0,0,0-.49.09.57.57,0,0,0-.09.73.73.73,0,0,0,.68.31" transform="translate(-0.15 -0.39)"/><path class="cls-6" d="M185.57,19.5a1.57,1.57,0,0,0-.28,1,1.24,1.24,0,0,0,.56.78,4.1,4.1,0,0,0,.87.36,1,1,0,0,1,.25.11c.44.29.44,1.05.89,1.3a1,1,0,0,0,.5.1c.07,0,.16,0,.19-.07a.22.22,0,0,0,0-.08c0-.38-.39-.6-.71-.76a.44.44,0,0,1-.18-.15.47.47,0,0,1,0-.33,1.57,1.57,0,0,0,.1-.8c-.06-.26-.33-.49-.56-.39s-.25.16-.33.07,0-.15,0-.22a1.12,1.12,0,0,0-.05-.77,1.07,1.07,0,0,0-.78-.42.84.84,0,0,0-.35,0,.31.31,0,0,0-.23.26" transform="translate(-0.15 -0.39)"/><path class="cls-6" d="M189.12,20.73a6.34,6.34,0,0,0-.06-1.74.71.71,0,0,1,.05-.54.55.55,0,0,1,.17-.13,1.44,1.44,0,0,1,.69-.22.62.62,0,0,1,.57.41c.06.22,0,.48.1.67a2.62,2.62,0,0,0,.28.3,1,1,0,0,1,.14.46c.06.46.11.91.16,1.36a.37.37,0,0,1,0,.21.32.32,0,0,1-.14.12l-1.14.66c-.24.14-.54.28-.77.12a.77.77,0,0,1-.24-.65,3.16,3.16,0,0,1,.15-1.06" transform="translate(-0.15 -0.39)"/><path class="cls-6" d="M190,23.47a.79.79,0,0,0,.1.94,1.45,1.45,0,0,0,.87.41c.32.05.64.05,1,.13a1.77,1.77,0,0,0,.95.15c.38-.12.57-.59.64-1a3.15,3.15,0,0,1,.31-1.23c.3-.45.9-.61,1.12-1.1a3.13,3.13,0,0,0,.06-1.26.5.5,0,0,1,.07-.34.64.64,0,0,1,.29-.19,2.11,2.11,0,0,0,.83-.74,4.12,4.12,0,0,0,.42-.87l.63-1.58c.12-.31.22-.71,0-.92a.66.66,0,0,0-.36-.11,6.72,6.72,0,0,0-4.52,1.2,5.85,5.85,0,0,1-.81.52,1.72,1.72,0,0,0-.38.2.9.9,0,0,0,.22,1.32,1.83,1.83,0,0,0,1.42.07c.29-.07.69-.08.77.22a1.47,1.47,0,0,1-.91.49c-.32,0-.75,0-.82.36a.8.8,0,0,0,.12.49,1.48,1.48,0,0,1,.1,1.18,1.82,1.82,0,0,1-1.13.77c-.44.17-.92.45-1,.93" transform="translate(-0.15 -0.39)"/><path class="cls-6" d="M199.09,26.76a3.65,3.65,0,0,1-.89-2.4,2.42,2.42,0,0,1-2-1.05,1.92,1.92,0,0,1,.14-2.29c.47-.47,1.28-.67,1.37-1.35.06-.43-.23-.86-.11-1.27s.41-.51.69-.69a4.4,4.4,0,0,0,1.64-2.14,5.41,5.41,0,0,1,.63-1.52,2.77,2.77,0,0,1,1.06-.73,14.07,14.07,0,0,1,3-1L205,14.5a1.56,1.56,0,0,1,1-1.57,1.41,1.41,0,0,1,1.64.79c.27.57.19,1.27.47,1.84.65,1.3,2.8,1.17,3.2,2.58a2.85,2.85,0,0,0,.27.94c.27.37.78.34,1.22.4a2.65,2.65,0,0,1,2,1.51,5,5,0,0,0,.36.78c.53.8,1.87,1.17,1.69,2.13l-.35.4a1.19,1.19,0,0,1,2,.57,4.57,4.57,0,0,1-2.53.3,1.72,1.72,0,0,0,1.06,1.59,1.51,1.51,0,0,0,1.73-.61,1.23,1.23,0,0,1,.19,1.41,14.42,14.42,0,0,1-.78,1.3c-1,1.89.09,4.5-1,6.34a6.27,6.27,0,0,0-.81,1.36,3.65,3.65,0,0,0,.71,2.54,1.57,1.57,0,0,1,.24.93c-.07.42-.45.7-.59,1.11-.24.71.33,1.4.73,2a4.79,4.79,0,0,1,.69,3.1L215.78,46a5.93,5.93,0,0,1-2.45-.63,6.26,6.26,0,0,1-1.55-1.49,62.33,62.33,0,0,1-4.05-5.23c-.61-.91-1.2-2.08-.78-3.1.29-.71,1-1.44.64-2.09a1.15,1.15,0,0,0-1.29.64,1.54,1.54,0,0,1-1.21-1.43,1.58,1.58,0,0,1,1.06-1.57,1.4,1.4,0,0,0-2.39.07c-.41,0-.71-.44-.8-.87s0-.89-.11-1.32a2.47,2.47,0,0,0-1.75-1.73,5.38,5.38,0,0,0-2-.51" transform="translate(-0.15 -0.39)"/><path class="cls-6" d="M226.72,33.06a2.3,2.3,0,0,0,1.67-1.79,13.93,13.93,0,0,0,.08-1.58c.06-.86.41-1.78,0-2.55a2.19,2.19,0,0,0-1.27-1c-.71-.26-1.67-.26-2,.46s0,1.59-.43,2.13-1.24.3-1.58.82a1.65,1.65,0,0,0-.19.58c-.1.55-.15,1.23.27,1.55s1.11,0,1.6.29a2.34,2.34,0,0,1,.72.91c.21.34.56.67.93.55" transform="translate(-0.15 -0.39)"/><path class="cls-6" d="M209.21,6.38a.76.76,0,0,1,.65-.78,1.22,1.22,0,0,1,1,.37c.27.25.51.58.85.64.62.12,1.16-.66,1.77-.5a1.34,1.34,0,0,1,.6.43c.16.18.32.48.15.64a.39.39,0,0,1-.27.08l-.84,0a1,1,0,0,0-.48.11.35.35,0,0,0-.12.46.43.43,0,0,0,.17.13,4.45,4.45,0,0,0,1.46.14,1.2,1.2,0,0,1,1.17.77,1.7,1.7,0,0,1-1.51.2,1.82,1.82,0,0,0-1.52.14,2.69,2.69,0,0,1-.32.27,1.08,1.08,0,0,1-.56.11A1.71,1.71,0,0,1,209.84,9a2.33,2.33,0,0,1-.19-1.29,1.55,1.55,0,0,0-.39-1.22" transform="translate(-0.15 -0.39)"/><path class="cls-6" d="M237.29,138l-2.47.53-5.73,1.23a21.3,21.3,0,0,1,3.13-5.13c-2.64-1.58-5.87-1-8.89-1.07s-6.58-1.47-7.15-4.65a1.42,1.42,0,0,0-.31-.85c-.77-.72-1.3,1.23-2.2,1.77-.6.36-1.34,0-2-.33a8.56,8.56,0,0,0-8.3.57,3.63,3.63,0,0,1-1.09-2.11l-2.7,2.39-.19-2.18c-.45-.55-1.33-.2-1.75.38a12.91,12.91,0,0,1-1.11,1.83c-1.42,1.39-4.74.48-4.82,2.54-1.43-1.73-4-1.22-6.13-.94s-5-.48-5.13-2.79c-.09-1.59,1.27-2.91,1.38-4.5a3.72,3.72,0,0,0-2.71-3.55,9.65,9.65,0,0,0-4.59.1,52.24,52.24,0,0,1,2-7.92,18.57,18.57,0,0,0-5.66-.36,8.63,8.63,0,0,0-.19,2.82A3.39,3.39,0,0,1,166,115a9.62,9.62,0,0,1-1-2.39,40.76,40.76,0,0,1-2-5.76c-.37-2,0-4.34,1.46-5.62s3.51-1.12,5.35-.94l7.68.75c2.43.24,5.39.89,6.14,3.4.54,1.8,0,4.48,1.66,5.07a23.7,23.7,0,0,0,1.59-9.33,7.25,7.25,0,0,1,.16-2.55c1.11-3.41,6.87-2.8,7.74-6.3.32-1.29-.23-2.69.07-4,.74-3.16,5.66-3.43,6.31-6.61.14-.67,0-1.38.21-2,.35-1.41,1.69-2.21,2.91-2.85a8.47,8.47,0,0,0,.74,3.22,50.37,50.37,0,0,0,7.15-6,5.23,5.23,0,0,0-5.57.38,16.79,16.79,0,0,1-.29-5,11.86,11.86,0,0,1-4.19,2.19c-1.08-.48-.68-2.4.35-3s2.28-.38,3.44-.48a6.74,6.74,0,0,0,4.9-2.92,13.45,13.45,0,0,1,.32,6.21,18.38,18.38,0,0,1,5.78-.91c.84-1.23-.26-2.93-1.45-3.77s-2.68-1.65-2.88-3.17l.16.49,0-2.72-6.23-5.16a5.69,5.69,0,0,1-1.2-1.2c-.64-1-.69-2.22-1.14-3.3s-1.72-2-2.6-1.28-.58,1.91-.58,3-.93,2.37-1.73,1.76a12.42,12.42,0,0,0-2.26-6c-1.35-1.65-3.64-2.57-5.5-1.67a38,38,0,0,1,.45,8,47.89,47.89,0,0,1-1.67,10c-.8.86-2.13-.45-2.2-1.67s.36-2.54-.19-3.6a4.15,4.15,0,0,0-1.52-1.42,22.1,22.1,0,0,1-5.1-4.89,6,6,0,0,1-1.3-2.64c-.29-2,1.16-3.8,2.64-5.06,2.19-1.86,4.69-3.27,6.88-5.13a5,5,0,0,0,2.08-3.39c0-1.4-1.55-2.75-2.58-1.89-.73.61-1,2.06-1.89,2-.5,0-.86-.52-1.09-1a6.34,6.34,0,0,1,1.84-7.49c.09-1-1.21-1.48-2-1a4.25,4.25,0,0,0-1.38,2.42,3.73,3.73,0,0,1-1.46,2.35A9.22,9.22,0,0,1,184.2,37c-1.17,0-.59-2.13-1.19-3.22a1.57,1.57,0,0,0-2.21-.39,5.15,5.15,0,0,0-1.57,2c.26-1.36-1.48-2.05-2.77-2s-3,0-3.36-1.32c-.28-1,.44-2.12,0-3-.56-1.13-2.43-.9-2.88-2.09-.23-.6,0-1.3-.1-1.93-.5-2.35-4.72-.48-5.81-2.6-.72-1.39.68-2.89,1.29-4.34A4.52,4.52,0,0,0,164,12.79,3.86,3.86,0,0,0,158.88,14c-.08-1.32-1.83-1.86-2.87-1.16a5.39,5.39,0,0,0-1.82,3.34,9.06,9.06,0,0,0-4-.72,3.34,3.34,0,0,0-2.93,2.6c-.17,1.08.31,2.27-.14,3.25-.72,1.54-2.83,1.16-4.32.54A5.1,5.1,0,0,0,150.51,24c1.69,10-.06,20.16-1.8,30.09a11,11,0,0,1-.47,2A10.89,10.89,0,0,1,147,58.25c-2.19,3.32-4.43,6.74-5.38,10.69-1.38,5.74.14,11.82,2.16,17.33.4,1.08.8,2.34.24,3.33-.31.54-.87.89-1.16,1.45a3.63,3.63,0,0,0,.21,2.73l3.33,9.38A42.32,42.32,0,0,0,146,91.82a21.65,21.65,0,0,1-.52-3.4c.18,1.13.36,2.26.52,3.4a22.86,22.86,0,0,0,1.8,5,20.62,20.62,0,0,1,2.23,5c.24,1.18.18,2.41.37,3.6a12.69,12.69,0,0,0,1.45,4A21.25,21.25,0,0,0,162.32,119c2.14.88,4.48,1.4,6.28,2.94,1.62,1.4,2.68,3.54,4.54,4.55,1.07.57,2.31.72,3.35,1.35,2.91,1.76,3.59,6.8,6.86,7.49l.31.19c1.14.74,2.85-.52,2.63-1.94a3,3,0,0,1,3.15.53,3.54,3.54,0,0,1,1.05,3.24,8.45,8.45,0,0,0-.31,1.56c0,.77.46,1.56.17,2.25-.5,1.15-2.53.84-2.79,2.07-.07.35,0,.73-.1,1-.24.55-1,.53-1.43.91a2.22,2.22,0,0,0-.49,1.72c0,1.87,0,3.74,0,5.62H229.9c7,0,12.7-6.58,12.7-14.69v-1l-2.55.56Z" transform="translate(-0.15 -0.39)"/><path class="cls-6" d="M229.9.64h-2.46a9.14,9.14,0,0,1,2.4,1.81c.49.52.94,1.32.58,2s-1.41.49-1.93-.09a13.25,13.25,0,0,1-1.12-2.07c-.41-.67-1.23-1.22-1.88-.84a2.11,2.11,0,0,0-.77,1.19l-1,2.7a3.21,3.21,0,0,0-.23,1,2.75,2.75,0,0,0,.7,1.68c3.27,4.41,8.52,6.78,11.61,11.34a19.55,19.55,0,0,0,2.36,3.3,3.16,3.16,0,0,0,3.57.82,1.19,1.19,0,0,0,.63-.71c.25-.91-.94-1.56-1.08-2.5a4.53,4.53,0,0,1,1.29-.37V17.22a1.81,1.81,0,0,1-1.26-.27c-.67-.55-.46-1.74-1-2.46-1.09-1.54-4,.39-5-1.21-.26-.42-.28-1-.53-1.39-.49-.83-1.57-.87-2.48-1s-2-.78-1.82-1.75c3-.28,5.61,3.52,8.61,2.84a4.06,4.06,0,0,0-1.4-3.38c.18-.69,1.18-.7,1.63-.18a4,4,0,0,1,.68,2c.14.7.41,1.48,1,1.73.26.11.55.11.81.23a1.41,1.41,0,0,1,.47.34C241.32,5.85,236.14.64,229.9.64Z" transform="translate(-0.15 -0.39)"/><path class="cls-6" d="M154.11,3a2.28,2.28,0,0,0,.33.73,2.51,2.51,0,0,1-.16,2.54,1.56,1.56,0,0,0,2.18-.12,2.1,2.1,0,0,1,.54-.57c.78-.41,1.59,1,2.4.65A7.38,7.38,0,0,0,156,9.16a.92.92,0,0,0-.18.8.84.84,0,0,0,.47.38,2.42,2.42,0,0,0,2.12.26c.69-.39.88-1.33,1.34-2,.67-1,1.87-1.33,2.9-1.85A9,9,0,0,0,167,1.34l-.87-.22c-.17-.08-.15-.3,0-.48H154.93a.57.57,0,0,1,0,.18C155,1.63,154,2.2,154.11,3Z" transform="translate(-0.15 -0.39)"/><rect class="cls-7" x="0.65" y="59.49" width="242.19" height="3.85"/><rect class="cls-8" x="0.65" y="63.34" width="242.19" height="3.85"/><rect class="cls-9" x="0.65" y="67.3" width="242.19" height="3.85"/><text class="cls-10" transform="translate(69.52 88.93)">267-420-6969</text><text class="cls-11" transform="translate(70.19 105.81)">EMMANUEL GOLDSTEIN<tspan x="0" y="12">PRESIDENT</tspan></text><g id="_2c9b37b0-eccc-46af-b60f-3d46c7fed4f2" data-name="2c9b37b0-eccc-46af-b60f-3d46c7fed4f2"><path class="cls-9" d="M30.53,16.16a14.9,14.9,0,0,0-9.82,26.11.62.62,0,0,0,.82-.93h0a13.66,13.66,0,1,1,9,3.39c-1.85,0-3-.33-3.4-1-.47-.81.27-2.26.86-3.32l.33.15a2.65,2.65,0,0,0,3.5-1.35L32.36,38A2.66,2.66,0,0,0,31,34.49l-1.85-.82c-.2-.08-.39-.51-.39-1.27a8.31,8.31,0,0,1,.76-3.06c1-2.38,2.47-3.4,2.95-3.19l1.86.82a2.69,2.69,0,0,0,3.49-1.35l.55-1.24a2.64,2.64,0,0,0,0-2A2.61,2.61,0,0,0,37,20.89l-1.85-.82A2.84,2.84,0,0,0,34,19.82c-2.66,0-6,3.26-8,7.93-2.44,5.52-2.2,10.8.54,12l.38.17c-.75,1.36-1.59,3.08-.78,4.45.62,1.07,2.09,1.59,4.47,1.59a14.91,14.91,0,0,0,0-29.81Z" transform="translate(-0.15 -0.39)"/></g><g id="_5dc9e7ba-0802-46a6-a5a8-509dbb8ff2f3" data-name="5dc9e7ba-0802-46a6-a5a8-509dbb8ff2f3"><path class="cls-9" d="M55.27,37.16c2,0,3.74-1.4,3.74-4.28V30c0-2.9-1.27-4.45-3.52-4.45a3.41,3.41,0,0,0-2.66,1l-.13-.74H50v14.7h3.11V36.65A3.86,3.86,0,0,0,55.27,37.16Zm-2.14-7.31c0-1.14.46-1.56,1.38-1.56s1.39.46,1.39,1.66v2.81c0,1.24-.5,1.68-1.39,1.68s-1.38-.4-1.38-1.59Zm10.78-7.1h-3.1V36.94h3.1V29.88c0-1.13.48-1.59,1.35-1.59s1.3.47,1.3,1.65v7h3.11V29.59c0-2.76-1.09-4-3.37-4a3.66,3.66,0,0,0-2.39.71Zm10.82,3H71.62V36.94h3.11Zm0-4.13H71.62v2.83h3.11Zm6.51,12.66c-.95,0-1.4-.23-1.4-1.56v-10H76.76v9.87c0,3.38.93,4.82,4.48,4.46Zm5.57,0c-1,0-1.27-.39-1.27-1.6V29.13h2V26.42h-2V23.89H82.36v8.74c0,3.06.88,4.53,3.68,4.53A8.45,8.45,0,0,0,87.52,37V34.27A3,3,0,0,1,86.81,34.35Zm8.32-.92c-.08.76-.41,1.21-1.51,1.21s-1.43-.55-1.43-1.71v-.64h5.88V29.88c0-3-1.47-4.32-4.42-4.32s-4.5,1.65-4.5,4.3v2.81c0,3.12,1.44,4.49,4.5,4.49s4.24-1.33,4.33-3.73Zm-2.94-3.67c0-1.29.45-1.79,1.48-1.79s1.47.51,1.47,1.71v.38h-3Zm12.09,4.55c-1,0-1.39-.23-1.39-1.56v-10H99.8v9.87c0,3.38.94,4.82,4.48,4.46Z" transform="translate(-0.15 -0.39)"/></g><text class="cls-12" transform="translate(14.92 131.11)"><tspan class="cls-13">F</tspan><tspan class="cls-14" x="2.56" y="0">AX</tspan><tspan class="cls-13" x="8.67" y="0">:</tspan><tspan x="9.89" y="0" xml:space="preserve"> 267-867-5309</tspan><tspan class="cls-15" x="0" y="7.2">P</tspan><tspan class="cls-16" x="2.78" y="7.2">AGER</tspan><tspan class="cls-15" x="15.22" y="7.2">:</tspan><tspan x="16.44" y="7.2" xml:space="preserve"> 1-877-CASH-NOW</tspan><tspan x="0" y="14.4">EMAIL</tspan><tspan class="cls-15" x="14.33" y="14.4">:</tspan><tspan class="cls-16" x="15.55" y="14.4" xml:space="preserve"> egoldstein@philtel</tspan><tspan class="cls-17" x="59.88" y="14.4">v</tspan><tspan x="62.36" y="14.4">ax.UUCP</tspan></text></svg>